<?xml version="1.0" encoding="UTF-8"?>
<svg width="170px" height="16px" viewBox="0 0 170 16" version="1.1" xmlns="http://www.w3.org/2000/svg" xmlns:xlink="http://www.w3.org/1999/xlink">
    <!-- Generator: Sketch 53.2 (72643) - https://sketchapp.com -->
    <title>Combined-Shape-Copy</title>
    <desc>Created with Sketch.</desc>
    <g id="Slicing" stroke="none" stroke-width="1" fill="none" fill-rule="evenodd">
        <g id="Artboard" transform="translate(-8.000000, -9.000000)" fill="#FFFFFF" fill-rule="nonzero">
            <path d="M25.5105354,24.7353166 L25.5105354,9.2656464 L27.2630465,9.2656464 L27.2630465,24.7353166 L25.5105354,24.7353166 Z M49.3680346,24.7353166 L49.3680346,9.2656464 L51.1219273,9.2656464 L51.1219273,24.7353166 L49.3680346,24.7353166 Z M54.5611181,9.26544 L66.745802,9.26544 L66.745802,10.8784403 L61.5297156,10.8784403 L61.5297156,24.7351103 L59.7765137,24.7351103 L59.7765137,10.8784403 L54.5611181,10.8784403 L54.5611181,9.26544 Z M73.8028194,9.155247 L75.4454964,9.155247 L82.5246188,24.7349727 L80.638787,24.7349727 L78.8185794,20.6471003 L78.1305616,19.1001333 L74.6020529,11.2098448 L71.0507484,19.1001333 L70.3627307,20.6471003 L68.5211088,24.7349727 L66.7230062,24.7349727 L73.8028194,9.155247 Z M85.5871958,9.26544 L87.340398,9.26544 L87.340398,23.1214221 L96.084993,23.1214221 L96.084993,24.7351103 L85.5871958,24.7351103 L85.5871958,9.26544 Z M118.044572,23.3980052 C117.608689,23.7295473 117.138267,24.013628 116.635379,24.2488715 C116.131799,24.4848029 115.592299,24.6684579 115.015497,24.8012123 C114.438005,24.9339667 113.794888,25 113.084765,25 C111.960174,25 110.924693,24.793646 109.977633,24.3816259 C109.030572,23.9689179 108.209233,23.4055716 107.513617,22.6908989 C106.818692,21.9762263 106.274356,21.1329264 105.882683,20.1603113 C105.49032,19.1876961 105.294138,18.1421693 105.294138,17.022355 C105.294138,15.9176734 105.49032,14.879025 105.882683,13.9064099 C106.274356,12.9337948 106.818692,12.0829285 107.513617,11.3538111 C108.209233,10.6246937 109.038171,10.0496539 109.999738,9.6300675 C110.961304,9.2104811 112.011982,9 113.15108,9 C113.861893,9 114.501556,9.0591548 115.07076,9.1767766 C115.640654,9.2950862 116.169792,9.4608572 116.657484,9.6740897 C117.145866,9.88801 117.597636,10.1459525 118.011414,10.4479171 C118.425883,10.7498818 118.824463,11.0855509 119.209919,11.4535489 L118.011414,12.7350071 C117.345501,12.116633 116.631234,11.6076265 115.869993,11.2100512 C115.107371,10.8124758 114.19485,10.6136881 113.128975,10.6136881 C112.271025,10.6136881 111.475936,10.7753321 110.743018,11.0999957 C110.01079,11.4239715 109.374581,11.8731353 108.83439,12.4481751 C108.2942,13.022527 107.872823,13.6966167 107.56957,14.4697562 C107.265627,15.2435837 107.114346,16.0793173 107.114346,16.9783328 C107.114346,17.8766605 107.265627,18.7165212 107.56957,19.4972271 C107.872823,20.2786209 108.2942,20.9561498 108.83439,21.5305017 C109.374581,22.1048536 110.01079,22.5581445 110.743018,22.8896866 C111.475936,23.2212287 112.271025,23.3869997 113.128975,23.3869997 C114.19485,23.3869997 115.111516,23.1916513 115.881046,22.8009544 C116.649885,22.4109454 117.404909,21.8620438 118.144735,21.1549374 L119.29903,22.2816302 C118.899068,22.695026 118.481145,23.0664632 118.044572,23.3980052 Z M122.360916,9.2655776 L124.114809,9.2655776 L124.114809,23.1215597 L132.858713,23.1215597 L132.858713,24.7352478 L122.360916,24.7352478 L122.360916,9.2655776 Z M148.349889,18.1273118 C148.349889,19.2615709 148.194463,20.2561971 147.883612,21.1105026 C147.57276,21.9654959 147.132733,22.6794807 146.563529,23.2545204 C145.993635,23.8288724 145.313216,24.2601522 144.521581,24.5469842 C143.729946,24.8345041 142.845747,24.9775762 141.869673,24.9775762 C140.907415,24.9775762 140.030815,24.8345041 139.23918,24.5469842 C138.448236,24.2601522 137.767126,23.8323116 137.197922,23.265526 C136.628028,22.6987404 136.188,21.9943855 135.877149,21.1545247 C135.566298,20.3153519 135.410872,19.3503031 135.410872,18.2600662 L135.410872,9.2657839 L137.164765,9.2657839 L137.164765,18.1493229 C137.164765,19.8290443 137.581996,21.1187567 138.418532,22.0170844 C139.254377,22.9154121 140.419724,23.3645759 141.913883,23.3645759 C143.348635,23.3645759 144.488424,22.9374232 145.331176,22.0831177 C146.17462,21.2288122 146.596687,19.9542324 146.596687,18.2600662 L146.596687,9.2657839 L148.349889,9.2657839 L148.349889,18.1273118 Z M152.499548,24.7353166 L152.499548,23.1443274 L163.840097,23.1443274 L163.840097,24.7353166 L152.499548,24.7353166 Z M21.0495416,13.9283522 C21.4495037,14.8713899 21.6491394,15.8880272 21.6491394,16.978264 C21.6491394,18.0685009 21.4495037,19.0885774 21.0495416,20.0384936 C20.6502702,20.9890976 20.0845207,21.8103865 19.3516022,22.503048 C18.6193745,23.1957096 17.7462274,23.7404841 16.7328519,24.1380594 C16.0082227,24.4228279 15.231785,24.6044194 14.4049203,24.6862732 L14.4049203,23.0622673 C14.9920841,22.9907313 15.5426364,22.8566012 16.0558866,22.6571257 C16.8551201,22.3482825 17.5320853,21.9170027 18.0867824,21.3646619 C18.6414794,20.8123211 19.0704544,20.1678088 19.374398,19.4311251 C19.67696,18.6944413 19.8289318,17.8917243 19.8289318,17.0222862 C19.8289318,16.1679807 19.67696,15.3645759 19.374398,14.6134474 C19.0704544,13.8623189 18.6414794,13.2102403 18.0867824,12.6572116 C17.5320853,12.1055587 16.8551201,11.6708396 16.0558866,11.3537423 C15.2573439,11.0373329 14.3696905,10.8784403 13.3929263,10.8784403 L9.7532019,10.8784403 L9.7532019,18.0292937 L8,18.0292937 L8,9.26544 L13.3929263,9.26544 C14.6059375,9.26544 15.7194763,9.4607884 16.7328519,9.8514853 C17.7462274,10.2414943 18.6193745,10.7828296 19.3516022,11.4754912 C20.0845207,12.1681527 20.6502702,12.9853145 21.0495416,13.9283522 Z M38.8488234,18.0295 L38.8488234,16.4921628 L45.2620331,16.4921628 L45.2620331,18.0295 L38.8488234,18.0295 Z M38.7872058,23.4470487 L38.7872058,24.997455 C37.6550159,24.9720046 36.6361141,24.7663385 35.7298096,24.3811444 C34.760644,23.9691243 33.9323977,23.4016508 33.24438,22.6794119 C32.5563622,21.9578608 32.030678,21.1104338 31.6687088,20.1385065 C31.3060488,19.1658914 31.1250643,18.127243 31.1250643,17.0225614 C31.1250643,15.961214 31.3143382,14.9452646 31.6915046,13.9726495 C32.0679802,13.0000344 32.5971183,12.1457289 33.2775375,11.4090452 C33.9579566,10.6723615 34.7758412,10.087004 35.7298096,9.6522849 C36.6844688,9.2175659 37.7455082,9.0002064 38.9150002,9.0002064 C39.5657158,9.0002064 40.1611689,9.0449164 40.7013596,9.1329607 C41.2408594,9.2210051 41.7451295,9.3537595 42.2107158,9.5305361 C42.6769929,9.7073127 43.1128756,9.9246722 43.5204363,10.1826147 C43.9266155,10.4405572 44.3224329,10.7315163 44.7071979,11.055492 L43.5756988,12.3816603 C43.2793538,12.1161515 42.9691932,11.8767809 42.6438354,11.6635484 C42.3177868,11.450316 41.9668701,11.2652852 41.589013,11.1105198 C41.2118466,10.9564421 40.7973781,10.8346933 40.3462982,10.7459611 C39.8952183,10.6579167 39.3950929,10.6132067 38.8486853,10.6132067 C37.9900446,10.6132067 37.1984097,10.7831048 36.4737806,11.122901 C35.7484607,11.4620094 35.1274487,11.9201152 34.609363,12.495155 C34.0919681,13.0715704 33.6844074,13.746348 33.3887532,14.5208632 C33.093099,15.2953785 32.9445811,16.1187309 32.9445811,16.9888569 C32.9445811,17.9188255 33.0889543,18.7786338 33.3777007,19.5682817 C33.6657563,20.3579296 34.0767709,21.0402734 34.609363,21.616001 C35.1426458,22.1910408 35.7857628,22.6415803 36.5400956,22.9662439 C37.2129161,23.2558274 37.9617226,23.4154078 38.7872058,23.4470487 Z M171.932181,10.5929152 L171.932181,9.0459482 C171.979154,9.0452603 172.026818,9.0445725 172.074482,9.0445725 C173.212889,9.0445725 174.208304,9.2014015 175.059346,9.512996 C175.909697,9.8252784 176.73518,10.2950776 177.533723,10.9230816 L176.51344,12.2705731 C175.78812,11.6817764 175.059346,11.2546236 174.327118,10.9891148 C173.5942,10.723606 172.828814,10.5915395 172.030272,10.5915395 C171.997114,10.5915395 171.965338,10.5929152 171.932181,10.5929152 Z M176.767647,17.7403981 C177.588985,18.4193027 178,19.3561498 178,20.5509393 C178,21.2153992 177.868061,21.8207042 177.605564,22.3668544 C177.343067,22.9123168 176.979717,23.3773011 176.518275,23.7604316 C176.056143,24.1449379 175.499373,24.4400241 174.848658,24.6463781 C174.197251,24.8520442 173.487129,24.955909 172.717599,24.955909 C171.475575,24.955909 170.339931,24.7564335 169.311358,24.3567946 C168.282095,23.9578436 167.302567,23.3394695 166.370704,22.503048 L167.457993,21.2209019 C168.271733,21.9582735 169.093071,22.5064873 169.922008,22.8676067 C170.749564,23.2287262 171.704223,23.408942 172.783914,23.408942 C173.835282,23.408942 174.674581,23.1654443 175.303882,22.6784489 C175.932493,22.1921414 176.246798,21.5503805 176.246798,20.7531662 C176.246798,20.3844805 176.1867,20.0563776 176.068577,19.7681699 C175.950453,19.48065 175.742528,19.2185805 175.446183,18.9826491 C175.148457,18.7460298 174.738133,18.5327974 174.211758,18.3408882 C173.684692,18.148979 173.013253,17.9639482 172.197441,17.7871717 C172.107639,17.767912 172.01991,17.7479644 171.932181,17.7280169 L171.932181,15.9162289 C172.240269,15.9946434 172.575989,16.0716822 172.939339,16.1466575 C174.671127,16.5304759 175.946999,17.0614935 176.767647,17.7403981 Z M152.500238,17.7956322 L152.500238,16.204643 L161.933542,16.204643 L161.933542,17.7956322 L152.500238,17.7956322 Z M152.500238,10.8566356 L152.500238,9.2656464 L163.729572,9.2656464 L163.729572,10.8566356 L152.500238,10.8566356 Z" id="Combined-Shape-Copy"></path>
        </g>
    </g>
</svg>